<mxfile host="app.diagrams.net" modified="2021-02-09T10:27:45.937Z" agent="5.0 (Windows NT 10.0; Win64; x64) AppleWebKit/537.36 (KHTML, like Gecko) Chrome/88.0.4324.150 Safari/537.36" etag="Y6Oa2bTZnA1TWfNc5pj8" version="14.3.0" type="github">
  <diagram id="8hjDaFCCsBZ1dB6hy3IH" name="Page-1">
    <mxGraphModel dx="2062" dy="1894" grid="1" gridSize="10" guides="1" tooltips="1" connect="1" arrows="1" fold="1" page="1" pageScale="1" pageWidth="850" pageHeight="1100" math="0" shadow="0">
      <root>
        <mxCell id="0" />
        <mxCell id="1" parent="0" />
        <mxCell id="DegTukk4blL1X4uZbTEn-1" value="" style="rounded=0;whiteSpace=wrap;html=1;" parent="1" vertex="1">
          <mxGeometry x="40" y="40" width="433.33" height="260" as="geometry" />
        </mxCell>
        <mxCell id="DegTukk4blL1X4uZbTEn-2" value="" style="rounded=0;whiteSpace=wrap;html=1;strokeColor=#FF8000;fillColor=#FF8000;" parent="1" vertex="1">
          <mxGeometry x="40" y="40" width="173.33" height="260" as="geometry" />
        </mxCell>
        <mxCell id="DegTukk4blL1X4uZbTEn-3" value="" style="rounded=0;whiteSpace=wrap;html=1;strokeColor=#000000;fillColor=#FFFFFF;" parent="1" vertex="1">
          <mxGeometry x="85.24" y="100" width="82.86" height="145" as="geometry" />
        </mxCell>
        <mxCell id="DegTukk4blL1X4uZbTEn-4" value="" style="shape=umlActor;verticalLabelPosition=bottom;verticalAlign=top;html=1;outlineConnect=0;strokeColor=#000000;fillColor=#FFFFFF;" parent="1" vertex="1">
          <mxGeometry x="111.67" y="142.5" width="30" height="60" as="geometry" />
        </mxCell>
        <mxCell id="DegTukk4blL1X4uZbTEn-5" value="" style="ellipse;whiteSpace=wrap;html=1;strokeColor=#000000;fillColor=#FFFFFF;" parent="1" vertex="1">
          <mxGeometry x="220" y="50" width="20" height="20" as="geometry" />
        </mxCell>
        <mxCell id="DegTukk4blL1X4uZbTEn-10" value="" style="shape=flexArrow;endArrow=classic;startArrow=classic;html=1;" parent="1" edge="1">
          <mxGeometry width="50" height="50" relative="1" as="geometry">
            <mxPoint x="220" y="70" as="sourcePoint" />
            <mxPoint x="240" y="60" as="targetPoint" />
            <Array as="points">
              <mxPoint x="230" y="60" />
            </Array>
          </mxGeometry>
        </mxCell>
        <mxCell id="DegTukk4blL1X4uZbTEn-12" value="name&lt;br&gt;role" style="shape=process;whiteSpace=wrap;html=1;backgroundOutline=1;strokeColor=#000000;fillColor=#FFFFFF;" parent="1" vertex="1">
          <mxGeometry x="250" y="50" width="40" height="20" as="geometry" />
        </mxCell>
        <mxCell id="DegTukk4blL1X4uZbTEn-13" value="tagline" style="shape=process;whiteSpace=wrap;html=1;backgroundOutline=1;strokeColor=#000000;fillColor=#FFFFFF;" parent="1" vertex="1">
          <mxGeometry x="280" y="110" width="140" height="20" as="geometry" />
        </mxCell>
        <mxCell id="DegTukk4blL1X4uZbTEn-14" value="short blurb about me" style="shape=process;whiteSpace=wrap;html=1;backgroundOutline=1;strokeColor=#000000;fillColor=#FFFFFF;" parent="1" vertex="1">
          <mxGeometry x="275" y="142.5" width="150" height="87.5" as="geometry" />
        </mxCell>
        <mxCell id="DegTukk4blL1X4uZbTEn-32" style="edgeStyle=orthogonalEdgeStyle;rounded=0;orthogonalLoop=1;jettySize=auto;html=1;exitX=0.5;exitY=0;exitDx=0;exitDy=0;entryX=0.614;entryY=0;entryDx=0;entryDy=0;entryPerimeter=0;" parent="1" source="DegTukk4blL1X4uZbTEn-15" target="DegTukk4blL1X4uZbTEn-20" edge="1">
          <mxGeometry relative="1" as="geometry">
            <Array as="points">
              <mxPoint x="325" y="-20" />
              <mxPoint x="886" y="-20" />
            </Array>
          </mxGeometry>
        </mxCell>
        <mxCell id="DegTukk4blL1X4uZbTEn-15" value="projects" style="rounded=0;whiteSpace=wrap;html=1;strokeColor=#000000;fillColor=#FFFFFF;" parent="1" vertex="1">
          <mxGeometry x="310" y="50" width="30" height="10" as="geometry" />
        </mxCell>
        <mxCell id="DegTukk4blL1X4uZbTEn-16" value="blog" style="rounded=0;whiteSpace=wrap;html=1;strokeColor=#000000;fillColor=#FFFFFF;" parent="1" vertex="1">
          <mxGeometry x="360" y="50" width="30" height="10" as="geometry" />
        </mxCell>
        <mxCell id="DegTukk4blL1X4uZbTEn-17" value="contact" style="rounded=0;whiteSpace=wrap;html=1;strokeColor=#000000;fillColor=#FFFFFF;" parent="1" vertex="1">
          <mxGeometry x="410" y="50" width="30" height="10" as="geometry" />
        </mxCell>
        <mxCell id="DegTukk4blL1X4uZbTEn-19" value="/home" style="text;html=1;strokeColor=none;fillColor=none;align=center;verticalAlign=middle;whiteSpace=wrap;rounded=0;" parent="1" vertex="1">
          <mxGeometry x="220" y="330" width="40" height="20" as="geometry" />
        </mxCell>
        <mxCell id="DegTukk4blL1X4uZbTEn-20" value="" style="rounded=0;whiteSpace=wrap;html=1;" parent="1" vertex="1">
          <mxGeometry x="620" y="40" width="433.33" height="260" as="geometry" />
        </mxCell>
        <mxCell id="DegTukk4blL1X4uZbTEn-21" value="" style="rounded=0;whiteSpace=wrap;html=1;strokeColor=#FF8000;fillColor=#FF8000;" parent="1" vertex="1">
          <mxGeometry x="620" y="40" width="173.33" height="260" as="geometry" />
        </mxCell>
        <mxCell id="DegTukk4blL1X4uZbTEn-24" value="" style="ellipse;whiteSpace=wrap;html=1;strokeColor=#000000;fillColor=#FFFFFF;" parent="1" vertex="1">
          <mxGeometry x="800" y="50" width="20" height="20" as="geometry" />
        </mxCell>
        <mxCell id="DegTukk4blL1X4uZbTEn-25" value="" style="shape=flexArrow;endArrow=classic;startArrow=classic;html=1;" parent="1" edge="1">
          <mxGeometry width="50" height="50" relative="1" as="geometry">
            <mxPoint x="800" y="70" as="sourcePoint" />
            <mxPoint x="820" y="60" as="targetPoint" />
            <Array as="points">
              <mxPoint x="810" y="60" />
            </Array>
          </mxGeometry>
        </mxCell>
        <mxCell id="DegTukk4blL1X4uZbTEn-26" value="name&lt;br&gt;role" style="shape=process;whiteSpace=wrap;html=1;backgroundOutline=1;strokeColor=#000000;fillColor=#FFFFFF;" parent="1" vertex="1">
          <mxGeometry x="830" y="50" width="40" height="20" as="geometry" />
        </mxCell>
        <mxCell id="DegTukk4blL1X4uZbTEn-27" value="title of project" style="shape=process;whiteSpace=wrap;html=1;backgroundOutline=1;strokeColor=#000000;fillColor=#FFFFFF;" parent="1" vertex="1">
          <mxGeometry x="855" y="90" width="140" height="20" as="geometry" />
        </mxCell>
        <mxCell id="DegTukk4blL1X4uZbTEn-28" value="slides" style="shape=process;whiteSpace=wrap;html=1;backgroundOutline=1;strokeColor=#000000;fillColor=#FFFFFF;" parent="1" vertex="1">
          <mxGeometry x="855" y="142.5" width="150" height="87.5" as="geometry" />
        </mxCell>
        <mxCell id="DegTukk4blL1X4uZbTEn-29" value="projects" style="rounded=0;whiteSpace=wrap;html=1;strokeColor=#000000;fillColor=#FFFFFF;" parent="1" vertex="1">
          <mxGeometry x="890" y="50" width="30" height="10" as="geometry" />
        </mxCell>
        <mxCell id="DegTukk4blL1X4uZbTEn-30" value="blog" style="rounded=0;whiteSpace=wrap;html=1;strokeColor=#000000;fillColor=#FFFFFF;" parent="1" vertex="1">
          <mxGeometry x="940" y="50" width="30" height="10" as="geometry" />
        </mxCell>
        <mxCell id="DegTukk4blL1X4uZbTEn-31" value="contact" style="rounded=0;whiteSpace=wrap;html=1;strokeColor=#000000;fillColor=#FFFFFF;" parent="1" vertex="1">
          <mxGeometry x="990" y="50" width="30" height="10" as="geometry" />
        </mxCell>
        <mxCell id="DegTukk4blL1X4uZbTEn-33" value="" style="rounded=0;whiteSpace=wrap;html=1;strokeColor=#000000;fillColor=#FFFFFF;" parent="1" vertex="1">
          <mxGeometry x="630" y="100" width="70" height="70" as="geometry" />
        </mxCell>
        <mxCell id="DegTukk4blL1X4uZbTEn-35" value="" style="rounded=0;whiteSpace=wrap;html=1;strokeColor=#000000;fillColor=#FFFFFF;" parent="1" vertex="1">
          <mxGeometry x="710" y="100" width="70" height="70" as="geometry" />
        </mxCell>
        <mxCell id="DegTukk4blL1X4uZbTEn-36" value="" style="rounded=0;whiteSpace=wrap;html=1;strokeColor=#000000;fillColor=#FFFFFF;" parent="1" vertex="1">
          <mxGeometry x="630" y="181.25" width="70" height="70" as="geometry" />
        </mxCell>
        <mxCell id="DegTukk4blL1X4uZbTEn-37" value="" style="rounded=0;whiteSpace=wrap;html=1;strokeColor=#000000;fillColor=#FFFFFF;" parent="1" vertex="1">
          <mxGeometry x="710" y="181.25" width="70" height="70" as="geometry" />
        </mxCell>
        <mxCell id="DegTukk4blL1X4uZbTEn-38" value="" style="ellipse;shape=cloud;whiteSpace=wrap;html=1;strokeColor=#000000;fillColor=#FFFFFF;" parent="1" vertex="1">
          <mxGeometry x="630" y="110" width="60" height="40" as="geometry" />
        </mxCell>
        <mxCell id="DegTukk4blL1X4uZbTEn-39" value="" style="ellipse;shape=cloud;whiteSpace=wrap;html=1;strokeColor=#000000;fillColor=#FFFFFF;" parent="1" vertex="1">
          <mxGeometry x="635" y="190" width="60" height="40" as="geometry" />
        </mxCell>
        <mxCell id="DegTukk4blL1X4uZbTEn-40" value="" style="ellipse;shape=cloud;whiteSpace=wrap;html=1;strokeColor=#000000;fillColor=#FFFFFF;" parent="1" vertex="1">
          <mxGeometry x="710" y="196.25" width="60" height="40" as="geometry" />
        </mxCell>
        <mxCell id="DegTukk4blL1X4uZbTEn-41" value="" style="ellipse;shape=cloud;whiteSpace=wrap;html=1;strokeColor=#000000;fillColor=#FFFFFF;" parent="1" vertex="1">
          <mxGeometry x="720" y="115" width="60" height="40" as="geometry" />
        </mxCell>
        <mxCell id="DegTukk4blL1X4uZbTEn-42" value="/projects" style="text;html=1;strokeColor=none;fillColor=none;align=center;verticalAlign=middle;whiteSpace=wrap;rounded=0;" parent="1" vertex="1">
          <mxGeometry x="860" y="320" width="40" height="20" as="geometry" />
        </mxCell>
        <mxCell id="DegTukk4blL1X4uZbTEn-43" value="" style="ellipse;shape=cloud;whiteSpace=wrap;html=1;strokeColor=#000000;fillColor=#FFFFFF;" parent="1" vertex="1">
          <mxGeometry x="945" y="150" width="60" height="40" as="geometry" />
        </mxCell>
        <mxCell id="DegTukk4blL1X4uZbTEn-44" value="" style="ellipse;shape=cloud;whiteSpace=wrap;html=1;strokeColor=#000000;fillColor=#FFFFFF;" parent="1" vertex="1">
          <mxGeometry x="855" y="190" width="60" height="40" as="geometry" />
        </mxCell>
        <mxCell id="DegTukk4blL1X4uZbTEn-45" value="skills used" style="shape=process;whiteSpace=wrap;html=1;backgroundOutline=1;strokeColor=#000000;fillColor=#FFFFFF;" parent="1" vertex="1">
          <mxGeometry x="830" y="115" width="190" height="15" as="geometry" />
        </mxCell>
        <mxCell id="DegTukk4blL1X4uZbTEn-46" value="information on project" style="shape=process;whiteSpace=wrap;html=1;backgroundOutline=1;strokeColor=#000000;fillColor=#FFFFFF;" parent="1" vertex="1">
          <mxGeometry x="830" y="236.25" width="190" height="53.75" as="geometry" />
        </mxCell>
        <mxCell id="DegTukk4blL1X4uZbTEn-47" value="" style="rounded=0;whiteSpace=wrap;html=1;strokeColor=#000000;fillColor=#FFFFFF;" parent="1" vertex="1">
          <mxGeometry x="1040" y="55" width="10" height="60" as="geometry" />
        </mxCell>
      </root>
    </mxGraphModel>
  </diagram>
</mxfile>
